# xmcd CD database file
#
# Track frame offsets:
#	150
#	12502
#	27928
#	58689
#	74111
#	90350
#	102566
#	134218
#	156374
#	172598
#	198341
#	219014
#	231855
#
# Disc length: 3437 seconds
#
# Revision: 0
# Processed by: cddbd v1.5.2PL0 Copyright (c) Steve Scherf et al.
# Submitted via: CDex 1.51
#
DISCID=b40d6b0d
DTITLE=Various Artist - Snowboy Presents Afro Cuban Kaleidoscope
DYEAR=2008
DGENRE=Salsa
TTITLE0=The Puente - 110th Street and 5th Avenue
TTITLE1=Eddie Palmieri and Cal Tjader - Bamboleate
TTITLE2=Cabrerita - Por Las Nubes
TTITLE3=Johnny Colon - Ya Yi Ki
TTITLE4=Pete Rodriguez - Arranca En Fa
TTITLE5=Joe Cuba Sextette - Joe Cuba's Mambo
TTITLE6=Alegre All Stars - Alegra Te Invita
TTITLE7=Sabu Martinez - The Oracle
TTITLE8=Candido - Take More Candi
TTITLE9=Eddie Pamieri - Bomboncito De Pozo
TTITLE10=Bobby Valentin - Zip Zap
TTITLE11=Louie Ramirez - Chin Chon Chow
TTITLE12=Tico Alegre All Stars - La Odisea De Tito
EXTD=YEAR: 2008
EXTT0=
EXTT1=
EXTT2=
EXTT3=
EXTT4=
EXTT5=
EXTT6=
EXTT7=
EXTT8=
EXTT9=
EXTT10=
EXTT11=
EXTT12=
PLAYORDER=
